<mxfile host="Electron" modified="2024-12-06T21:23:38.777Z" agent="Mozilla/5.0 (Windows NT 10.0; Win64; x64) AppleWebKit/537.36 (KHTML, like Gecko) draw.io/22.0.0 Chrome/114.0.5735.289 Electron/25.8.3 Safari/537.36" etag="27mgEadV_Bd_UZcNuDPa" version="22.0.0" type="device">
  <diagram id="C5RBs43oDa-KdzZeNtuy" name="Page-1">
    <mxGraphModel dx="2954" dy="2259" grid="0" gridSize="10" guides="1" tooltips="1" connect="1" arrows="1" fold="1" page="1" pageScale="1" pageWidth="827" pageHeight="1169" math="0" shadow="0">
      <root>
        <mxCell id="WIyWlLk6GJQsqaUBKTNV-0" />
        <mxCell id="WIyWlLk6GJQsqaUBKTNV-1" parent="WIyWlLk6GJQsqaUBKTNV-0" />
        <mxCell id="zkfFHV4jXpPFQw0GAbJ--0" value="Agente" style="swimlane;fontStyle=2;align=center;verticalAlign=top;childLayout=stackLayout;horizontal=1;startSize=26;horizontalStack=0;resizeParent=1;resizeLast=0;collapsible=1;marginBottom=0;rounded=0;shadow=0;strokeWidth=1;" parent="WIyWlLk6GJQsqaUBKTNV-1" vertex="1">
          <mxGeometry x="220" y="128" width="160" height="68" as="geometry">
            <mxRectangle x="230" y="140" width="160" height="26" as="alternateBounds" />
          </mxGeometry>
        </mxCell>
        <mxCell id="zkfFHV4jXpPFQw0GAbJ--2" value="+Partita Iva: AlfaNumerica&#xa;" style="text;align=left;verticalAlign=top;spacingLeft=4;spacingRight=4;overflow=hidden;rotatable=0;points=[[0,0.5],[1,0.5]];portConstraint=eastwest;rounded=0;shadow=0;html=0;" parent="zkfFHV4jXpPFQw0GAbJ--0" vertex="1">
          <mxGeometry y="26" width="160" height="34" as="geometry" />
        </mxCell>
        <mxCell id="zkfFHV4jXpPFQw0GAbJ--4" value="" style="line;html=1;strokeWidth=1;align=left;verticalAlign=middle;spacingTop=-1;spacingLeft=3;spacingRight=3;rotatable=0;labelPosition=right;points=[];portConstraint=eastwest;" parent="zkfFHV4jXpPFQw0GAbJ--0" vertex="1">
          <mxGeometry y="60" width="160" height="8" as="geometry" />
        </mxCell>
        <mxCell id="zkfFHV4jXpPFQw0GAbJ--17" value="Immobile" style="swimlane;fontStyle=0;align=center;verticalAlign=top;childLayout=stackLayout;horizontal=1;startSize=26;horizontalStack=0;resizeParent=1;resizeLast=0;collapsible=1;marginBottom=0;rounded=0;shadow=0;strokeWidth=1;" parent="WIyWlLk6GJQsqaUBKTNV-1" vertex="1">
          <mxGeometry x="597" y="235" width="160" height="336" as="geometry">
            <mxRectangle x="550" y="140" width="160" height="26" as="alternateBounds" />
          </mxGeometry>
        </mxCell>
        <mxCell id="zkfFHV4jXpPFQw0GAbJ--19" value="+TipoImmobile:tipoImmobile" style="text;align=left;verticalAlign=top;spacingLeft=4;spacingRight=4;overflow=hidden;rotatable=0;points=[[0,0.5],[1,0.5]];portConstraint=eastwest;rounded=0;shadow=0;html=0;" parent="zkfFHV4jXpPFQw0GAbJ--17" vertex="1">
          <mxGeometry y="26" width="160" height="26" as="geometry" />
        </mxCell>
        <mxCell id="zkfFHV4jXpPFQw0GAbJ--20" value="+Longitudine:Int" style="text;align=left;verticalAlign=top;spacingLeft=4;spacingRight=4;overflow=hidden;rotatable=0;points=[[0,0.5],[1,0.5]];portConstraint=eastwest;rounded=0;shadow=0;html=0;" parent="zkfFHV4jXpPFQw0GAbJ--17" vertex="1">
          <mxGeometry y="52" width="160" height="26" as="geometry" />
        </mxCell>
        <mxCell id="zkfFHV4jXpPFQw0GAbJ--21" value="+Latitudine:Int" style="text;align=left;verticalAlign=top;spacingLeft=4;spacingRight=4;overflow=hidden;rotatable=0;points=[[0,0.5],[1,0.5]];portConstraint=eastwest;rounded=0;shadow=0;html=0;" parent="zkfFHV4jXpPFQw0GAbJ--17" vertex="1">
          <mxGeometry y="78" width="160" height="26" as="geometry" />
        </mxCell>
        <mxCell id="zkfFHV4jXpPFQw0GAbJ--22" value="+TipoVendita:Vendita&#xa;&#xa;+Foto:Uri&#xa;&#xa;+Descrizione:String&#xa;&#xa;+Dimensioni:Int&#xa;&#xa;+Indirizzo:String&#xa;&#xa;+NumeroStanze:Int&#xa;&#xa;+Piano:Int&#xa;&#xa;+ClasseEnergetica:String&#xa;" style="text;align=left;verticalAlign=top;spacingLeft=4;spacingRight=4;overflow=hidden;rotatable=0;points=[[0,0.5],[1,0.5]];portConstraint=eastwest;rounded=0;shadow=0;html=0;" parent="zkfFHV4jXpPFQw0GAbJ--17" vertex="1">
          <mxGeometry y="104" width="160" height="224" as="geometry" />
        </mxCell>
        <mxCell id="zkfFHV4jXpPFQw0GAbJ--23" value="" style="line;html=1;strokeWidth=1;align=left;verticalAlign=middle;spacingTop=-1;spacingLeft=3;spacingRight=3;rotatable=0;labelPosition=right;points=[];portConstraint=eastwest;" parent="zkfFHV4jXpPFQw0GAbJ--17" vertex="1">
          <mxGeometry y="328" width="160" height="8" as="geometry" />
        </mxCell>
        <mxCell id="pRX1e3hSng5BAHz3EBmg-0" value="Notifica" style="swimlane;fontStyle=0;childLayout=stackLayout;horizontal=1;startSize=26;fillColor=none;horizontalStack=0;resizeParent=1;resizeParentMax=0;resizeLast=0;collapsible=1;marginBottom=0;whiteSpace=wrap;html=1;" parent="WIyWlLk6GJQsqaUBKTNV-1" vertex="1">
          <mxGeometry x="230" y="340" width="140" height="87" as="geometry" />
        </mxCell>
        <mxCell id="pRX1e3hSng5BAHz3EBmg-2" value="+ Categoria:categoria&lt;br&gt;&lt;br&gt;+Nome:String" style="text;strokeColor=none;fillColor=none;align=left;verticalAlign=top;spacingLeft=4;spacingRight=4;overflow=hidden;rotatable=0;points=[[0,0.5],[1,0.5]];portConstraint=eastwest;whiteSpace=wrap;html=1;" parent="pRX1e3hSng5BAHz3EBmg-0" vertex="1">
          <mxGeometry y="26" width="140" height="61" as="geometry" />
        </mxCell>
        <mxCell id="pRX1e3hSng5BAHz3EBmg-4" value="Cliente" style="swimlane;fontStyle=0;childLayout=stackLayout;horizontal=1;startSize=26;fillColor=none;horizontalStack=0;resizeParent=1;resizeParentMax=0;resizeLast=0;collapsible=1;marginBottom=0;whiteSpace=wrap;html=1;" parent="WIyWlLk6GJQsqaUBKTNV-1" vertex="1">
          <mxGeometry x="-372" y="134" width="181" height="79" as="geometry" />
        </mxCell>
        <mxCell id="pRX1e3hSng5BAHz3EBmg-5" value="+ DataRegistrazione: Date&lt;br&gt;&lt;br&gt;+OraRegistrazione:Time" style="text;strokeColor=none;fillColor=none;align=left;verticalAlign=top;spacingLeft=4;spacingRight=4;overflow=hidden;rotatable=0;points=[[0,0.5],[1,0.5]];portConstraint=eastwest;whiteSpace=wrap;html=1;" parent="pRX1e3hSng5BAHz3EBmg-4" vertex="1">
          <mxGeometry y="26" width="181" height="53" as="geometry" />
        </mxCell>
        <mxCell id="pRX1e3hSng5BAHz3EBmg-8" value="Admin" style="swimlane;fontStyle=0;childLayout=stackLayout;horizontal=1;startSize=26;fillColor=none;horizontalStack=0;resizeParent=1;resizeParentMax=0;resizeLast=0;collapsible=1;marginBottom=0;whiteSpace=wrap;html=1;" parent="WIyWlLk6GJQsqaUBKTNV-1" vertex="1">
          <mxGeometry x="-432" y="301" width="180" height="78" as="geometry" />
        </mxCell>
        <mxCell id="pRX1e3hSng5BAHz3EBmg-10" value="+ field: type" style="text;strokeColor=none;fillColor=none;align=left;verticalAlign=top;spacingLeft=4;spacingRight=4;overflow=hidden;rotatable=0;points=[[0,0.5],[1,0.5]];portConstraint=eastwest;whiteSpace=wrap;html=1;" parent="pRX1e3hSng5BAHz3EBmg-8" vertex="1">
          <mxGeometry y="26" width="180" height="26" as="geometry" />
        </mxCell>
        <mxCell id="pRX1e3hSng5BAHz3EBmg-11" value="+ field: type" style="text;strokeColor=none;fillColor=none;align=left;verticalAlign=top;spacingLeft=4;spacingRight=4;overflow=hidden;rotatable=0;points=[[0,0.5],[1,0.5]];portConstraint=eastwest;whiteSpace=wrap;html=1;" parent="pRX1e3hSng5BAHz3EBmg-8" vertex="1">
          <mxGeometry y="52" width="180" height="26" as="geometry" />
        </mxCell>
        <mxCell id="pRX1e3hSng5BAHz3EBmg-12" value="Gestore Agenzia Immobiliare" style="swimlane;fontStyle=0;childLayout=stackLayout;horizontal=1;startSize=26;fillColor=none;horizontalStack=0;resizeParent=1;resizeParentMax=0;resizeLast=0;collapsible=1;marginBottom=0;whiteSpace=wrap;html=1;" parent="WIyWlLk6GJQsqaUBKTNV-1" vertex="1">
          <mxGeometry x="-452" y="488" width="220" height="104" as="geometry" />
        </mxCell>
        <mxCell id="pRX1e3hSng5BAHz3EBmg-13" value="+ Partita Iva:String" style="text;strokeColor=none;fillColor=none;align=left;verticalAlign=top;spacingLeft=4;spacingRight=4;overflow=hidden;rotatable=0;points=[[0,0.5],[1,0.5]];portConstraint=eastwest;whiteSpace=wrap;html=1;" parent="pRX1e3hSng5BAHz3EBmg-12" vertex="1">
          <mxGeometry y="26" width="220" height="26" as="geometry" />
        </mxCell>
        <mxCell id="pRX1e3hSng5BAHz3EBmg-14" value=": type" style="text;strokeColor=none;fillColor=none;align=left;verticalAlign=top;spacingLeft=4;spacingRight=4;overflow=hidden;rotatable=0;points=[[0,0.5],[1,0.5]];portConstraint=eastwest;whiteSpace=wrap;html=1;" parent="pRX1e3hSng5BAHz3EBmg-12" vertex="1">
          <mxGeometry y="52" width="220" height="26" as="geometry" />
        </mxCell>
        <mxCell id="pRX1e3hSng5BAHz3EBmg-15" value="+ field: type" style="text;strokeColor=none;fillColor=none;align=left;verticalAlign=top;spacingLeft=4;spacingRight=4;overflow=hidden;rotatable=0;points=[[0,0.5],[1,0.5]];portConstraint=eastwest;whiteSpace=wrap;html=1;" parent="pRX1e3hSng5BAHz3EBmg-12" vertex="1">
          <mxGeometry y="78" width="220" height="26" as="geometry" />
        </mxCell>
        <mxCell id="pRX1e3hSng5BAHz3EBmg-16" value="Visita" style="swimlane;fontStyle=0;childLayout=stackLayout;horizontal=1;startSize=26;fillColor=none;horizontalStack=0;resizeParent=1;resizeParentMax=0;resizeLast=0;collapsible=1;marginBottom=0;whiteSpace=wrap;html=1;" parent="WIyWlLk6GJQsqaUBKTNV-1" vertex="1">
          <mxGeometry x="210" y="-101" width="140" height="135" as="geometry" />
        </mxCell>
        <mxCell id="pRX1e3hSng5BAHz3EBmg-18" value="+ DataVisita: type" style="text;strokeColor=none;fillColor=none;align=left;verticalAlign=top;spacingLeft=4;spacingRight=4;overflow=hidden;rotatable=0;points=[[0,0.5],[1,0.5]];portConstraint=eastwest;whiteSpace=wrap;html=1;" parent="pRX1e3hSng5BAHz3EBmg-16" vertex="1">
          <mxGeometry y="26" width="140" height="26" as="geometry" />
        </mxCell>
        <mxCell id="pRX1e3hSng5BAHz3EBmg-19" value="+ OraVisita: type&lt;br&gt;&lt;br&gt;+Accettata:Bool&lt;br&gt;&lt;br&gt;+Descrizione:String" style="text;strokeColor=none;fillColor=none;align=left;verticalAlign=top;spacingLeft=4;spacingRight=4;overflow=hidden;rotatable=0;points=[[0,0.5],[1,0.5]];portConstraint=eastwest;whiteSpace=wrap;html=1;" parent="pRX1e3hSng5BAHz3EBmg-16" vertex="1">
          <mxGeometry y="52" width="140" height="83" as="geometry" />
        </mxCell>
        <mxCell id="pRX1e3hSng5BAHz3EBmg-24" value="Recensione" style="swimlane;fontStyle=1;align=center;verticalAlign=top;childLayout=stackLayout;horizontal=1;startSize=26;horizontalStack=0;resizeParent=1;resizeParentMax=0;resizeLast=0;collapsible=1;marginBottom=0;whiteSpace=wrap;html=1;" parent="WIyWlLk6GJQsqaUBKTNV-1" vertex="1">
          <mxGeometry x="-96" y="139" width="208" height="91" as="geometry" />
        </mxCell>
        <mxCell id="pRX1e3hSng5BAHz3EBmg-25" value="+ CommentoRecensione: String&lt;br&gt;&lt;br&gt;+Valutazione:Int" style="text;strokeColor=none;fillColor=none;align=left;verticalAlign=top;spacingLeft=4;spacingRight=4;overflow=hidden;rotatable=0;points=[[0,0.5],[1,0.5]];portConstraint=eastwest;whiteSpace=wrap;html=1;" parent="pRX1e3hSng5BAHz3EBmg-24" vertex="1">
          <mxGeometry y="26" width="208" height="57" as="geometry" />
        </mxCell>
        <mxCell id="pRX1e3hSng5BAHz3EBmg-26" value="" style="line;strokeWidth=1;fillColor=none;align=left;verticalAlign=middle;spacingTop=-1;spacingLeft=3;spacingRight=3;rotatable=0;labelPosition=right;points=[];portConstraint=eastwest;strokeColor=inherit;" parent="pRX1e3hSng5BAHz3EBmg-24" vertex="1">
          <mxGeometry y="83" width="208" height="8" as="geometry" />
        </mxCell>
        <mxCell id="pRX1e3hSng5BAHz3EBmg-32" value="Prenota" style="swimlane;fontStyle=0;childLayout=stackLayout;horizontal=1;startSize=26;fillColor=none;horizontalStack=0;resizeParent=1;resizeParentMax=0;resizeLast=0;collapsible=1;marginBottom=0;whiteSpace=wrap;html=1;rotation=-20;" parent="WIyWlLk6GJQsqaUBKTNV-1" vertex="1">
          <mxGeometry x="-160.81" y="-104.57" width="170" height="78" as="geometry" />
        </mxCell>
        <mxCell id="pRX1e3hSng5BAHz3EBmg-34" value="+ DataPrenotazione: Date" style="text;strokeColor=none;fillColor=none;align=left;verticalAlign=top;spacingLeft=4;spacingRight=4;overflow=hidden;rotatable=0;points=[[0,0.5],[1,0.5]];portConstraint=eastwest;whiteSpace=wrap;html=1;rotation=-20;" parent="pRX1e3hSng5BAHz3EBmg-32" vertex="1">
          <mxGeometry y="26" width="170" height="26" as="geometry" />
        </mxCell>
        <mxCell id="pRX1e3hSng5BAHz3EBmg-35" value="+ OraPrenotazione: Time" style="text;strokeColor=none;fillColor=none;align=left;verticalAlign=top;spacingLeft=4;spacingRight=4;overflow=hidden;rotatable=0;points=[[0,0.5],[1,0.5]];portConstraint=eastwest;whiteSpace=wrap;html=1;rotation=-20;" parent="pRX1e3hSng5BAHz3EBmg-32" vertex="1">
          <mxGeometry y="52" width="170" height="26" as="geometry" />
        </mxCell>
        <mxCell id="pRX1e3hSng5BAHz3EBmg-49" value="" style="endArrow=none;html=1;edgeStyle=orthogonalEdgeStyle;rounded=0;exitX=1;exitY=0.5;exitDx=0;exitDy=0;entryX=0.001;entryY=0.057;entryDx=0;entryDy=0;entryPerimeter=0;" parent="WIyWlLk6GJQsqaUBKTNV-1" target="zkfFHV4jXpPFQw0GAbJ--21" edge="1">
          <mxGeometry relative="1" as="geometry">
            <mxPoint x="380" y="198" as="sourcePoint" />
            <mxPoint x="580" y="224" as="targetPoint" />
          </mxGeometry>
        </mxCell>
        <mxCell id="pRX1e3hSng5BAHz3EBmg-52" value="Carica" style="text;html=1;align=center;verticalAlign=middle;resizable=0;points=[];autosize=1;strokeColor=none;fillColor=none;" parent="WIyWlLk6GJQsqaUBKTNV-1" vertex="1">
          <mxGeometry x="452" y="284" width="60" height="30" as="geometry" />
        </mxCell>
        <mxCell id="pRX1e3hSng5BAHz3EBmg-53" value="" style="endArrow=none;html=1;rounded=0;entryX=0.5;entryY=0;entryDx=0;entryDy=0;exitX=0.5;exitY=1;exitDx=0;exitDy=0;" parent="WIyWlLk6GJQsqaUBKTNV-1" source="zkfFHV4jXpPFQw0GAbJ--0" target="pRX1e3hSng5BAHz3EBmg-0" edge="1">
          <mxGeometry relative="1" as="geometry">
            <mxPoint x="280" y="270" as="sourcePoint" />
            <mxPoint x="590" y="400" as="targetPoint" />
          </mxGeometry>
        </mxCell>
        <mxCell id="pRX1e3hSng5BAHz3EBmg-56" value="riceve&amp;gt;" style="text;html=1;align=center;verticalAlign=middle;resizable=0;points=[];autosize=1;strokeColor=none;fillColor=none;rotation=90;" parent="WIyWlLk6GJQsqaUBKTNV-1" vertex="1">
          <mxGeometry x="282" y="272" width="57" height="26" as="geometry" />
        </mxCell>
        <mxCell id="pRX1e3hSng5BAHz3EBmg-63" value="" style="endArrow=none;html=1;rounded=0;exitX=1;exitY=0.5;exitDx=0;exitDy=0;" parent="WIyWlLk6GJQsqaUBKTNV-1" source="pRX1e3hSng5BAHz3EBmg-25" target="zkfFHV4jXpPFQw0GAbJ--2" edge="1">
          <mxGeometry width="50" height="50" relative="1" as="geometry">
            <mxPoint x="180" y="337" as="sourcePoint" />
            <mxPoint x="230" y="287" as="targetPoint" />
          </mxGeometry>
        </mxCell>
        <mxCell id="pRX1e3hSng5BAHz3EBmg-64" value="" style="endArrow=none;html=1;rounded=0;exitX=0.996;exitY=-0.108;exitDx=0;exitDy=0;exitPerimeter=0;" parent="WIyWlLk6GJQsqaUBKTNV-1" target="pRX1e3hSng5BAHz3EBmg-25" edge="1">
          <mxGeometry width="50" height="50" relative="1" as="geometry">
            <mxPoint x="-190.5600000000004" y="186.192" as="sourcePoint" />
            <mxPoint x="90" y="300" as="targetPoint" />
          </mxGeometry>
        </mxCell>
        <mxCell id="pRX1e3hSng5BAHz3EBmg-66" value="Lascia&amp;gt;" style="text;html=1;align=center;verticalAlign=middle;resizable=0;points=[];autosize=1;strokeColor=none;fillColor=none;" parent="WIyWlLk6GJQsqaUBKTNV-1" vertex="1">
          <mxGeometry x="-170" y="160" width="60" height="26" as="geometry" />
        </mxCell>
        <mxCell id="pRX1e3hSng5BAHz3EBmg-67" value="Si Riferisce&amp;gt;" style="text;html=1;align=center;verticalAlign=middle;resizable=0;points=[];autosize=1;strokeColor=none;fillColor=none;" parent="WIyWlLk6GJQsqaUBKTNV-1" vertex="1">
          <mxGeometry x="112" y="160" width="86" height="26" as="geometry" />
        </mxCell>
        <mxCell id="pRX1e3hSng5BAHz3EBmg-70" value="" style="endArrow=none;html=1;rounded=0;exitX=0.5;exitY=0;exitDx=0;exitDy=0;entryX=0;entryY=0.5;entryDx=0;entryDy=0;" parent="WIyWlLk6GJQsqaUBKTNV-1" source="pRX1e3hSng5BAHz3EBmg-4" target="pRX1e3hSng5BAHz3EBmg-18" edge="1">
          <mxGeometry width="50" height="50" relative="1" as="geometry">
            <mxPoint x="-20" y="-20" as="sourcePoint" />
            <mxPoint x="30" y="-70" as="targetPoint" />
          </mxGeometry>
        </mxCell>
        <mxCell id="pRX1e3hSng5BAHz3EBmg-72" value="" style="endArrow=none;html=1;rounded=0;exitX=1.013;exitY=0.177;exitDx=0;exitDy=0;exitPerimeter=0;entryX=0.5;entryY=0;entryDx=0;entryDy=0;" parent="WIyWlLk6GJQsqaUBKTNV-1" source="pRX1e3hSng5BAHz3EBmg-18" target="zkfFHV4jXpPFQw0GAbJ--17" edge="1">
          <mxGeometry width="50" height="50" relative="1" as="geometry">
            <mxPoint x="470" y="-20" as="sourcePoint" />
            <mxPoint x="520" y="-70" as="targetPoint" />
          </mxGeometry>
        </mxCell>
        <mxCell id="pRX1e3hSng5BAHz3EBmg-73" value="Riferisce&amp;gt;" style="text;html=1;align=center;verticalAlign=middle;resizable=0;points=[];autosize=1;strokeColor=none;fillColor=none;rotation=45;" parent="WIyWlLk6GJQsqaUBKTNV-1" vertex="1">
          <mxGeometry x="488" y="94" width="72" height="26" as="geometry" />
        </mxCell>
        <mxCell id="pRX1e3hSng5BAHz3EBmg-75" value="" style="endArrow=none;html=1;rounded=0;entryX=0.409;entryY=1.001;entryDx=0;entryDy=0;entryPerimeter=0;" parent="WIyWlLk6GJQsqaUBKTNV-1" source="zkfFHV4jXpPFQw0GAbJ--0" target="pRX1e3hSng5BAHz3EBmg-19" edge="1">
          <mxGeometry width="50" height="50" relative="1" as="geometry">
            <mxPoint x="190" y="120" as="sourcePoint" />
            <mxPoint x="240" y="70" as="targetPoint" />
          </mxGeometry>
        </mxCell>
        <mxCell id="pRX1e3hSng5BAHz3EBmg-76" value="Svolta Da&amp;gt;" style="text;html=1;align=center;verticalAlign=middle;resizable=0;points=[];autosize=1;strokeColor=none;fillColor=none;rotation=75;" parent="WIyWlLk6GJQsqaUBKTNV-1" vertex="1">
          <mxGeometry x="266" y="72" width="77" height="26" as="geometry" />
        </mxCell>
        <mxCell id="pRX1e3hSng5BAHz3EBmg-79" value="" style="endArrow=none;dashed=1;html=1;dashPattern=1 3;strokeWidth=2;rounded=0;entryX=0.5;entryY=1;entryDx=0;entryDy=0;" parent="WIyWlLk6GJQsqaUBKTNV-1" target="pRX1e3hSng5BAHz3EBmg-32" edge="1">
          <mxGeometry width="50" height="50" relative="1" as="geometry">
            <mxPoint x="-32" y="41" as="sourcePoint" />
            <mxPoint x="120" y="60" as="targetPoint" />
          </mxGeometry>
        </mxCell>
        <mxCell id="pRX1e3hSng5BAHz3EBmg-80" value="Utente" style="swimlane;fontStyle=0;childLayout=stackLayout;horizontal=1;startSize=26;fillColor=none;horizontalStack=0;resizeParent=1;resizeParentMax=0;resizeLast=0;collapsible=1;marginBottom=0;whiteSpace=wrap;html=1;" parent="WIyWlLk6GJQsqaUBKTNV-1" vertex="1">
          <mxGeometry x="-80" y="387" width="140" height="190" as="geometry" />
        </mxCell>
        <mxCell id="pRX1e3hSng5BAHz3EBmg-81" value="+ nome: String" style="text;strokeColor=none;fillColor=none;align=left;verticalAlign=top;spacingLeft=4;spacingRight=4;overflow=hidden;rotatable=0;points=[[0,0.5],[1,0.5]];portConstraint=eastwest;whiteSpace=wrap;html=1;" parent="pRX1e3hSng5BAHz3EBmg-80" vertex="1">
          <mxGeometry y="26" width="140" height="26" as="geometry" />
        </mxCell>
        <mxCell id="pRX1e3hSng5BAHz3EBmg-82" value="+ cognome: String" style="text;strokeColor=none;fillColor=none;align=left;verticalAlign=top;spacingLeft=4;spacingRight=4;overflow=hidden;rotatable=0;points=[[0,0.5],[1,0.5]];portConstraint=eastwest;whiteSpace=wrap;html=1;" parent="pRX1e3hSng5BAHz3EBmg-80" vertex="1">
          <mxGeometry y="52" width="140" height="26" as="geometry" />
        </mxCell>
        <mxCell id="pRX1e3hSng5BAHz3EBmg-83" value="+ CF: AlfaNumerico&lt;br&gt;&lt;br&gt;+telefono:String&lt;br&gt;&lt;br&gt;+Indirzzo:String" style="text;strokeColor=none;fillColor=none;align=left;verticalAlign=top;spacingLeft=4;spacingRight=4;overflow=hidden;rotatable=0;points=[[0,0.5],[1,0.5]];portConstraint=eastwest;whiteSpace=wrap;html=1;" parent="pRX1e3hSng5BAHz3EBmg-80" vertex="1">
          <mxGeometry y="78" width="140" height="112" as="geometry" />
        </mxCell>
        <mxCell id="pRX1e3hSng5BAHz3EBmg-84" value="Ricerca" style="swimlane;fontStyle=0;childLayout=stackLayout;horizontal=1;startSize=26;fillColor=none;horizontalStack=0;resizeParent=1;resizeParentMax=0;resizeLast=0;collapsible=1;marginBottom=0;whiteSpace=wrap;html=1;" parent="WIyWlLk6GJQsqaUBKTNV-1" vertex="1">
          <mxGeometry x="-85" y="680" width="197" height="282" as="geometry" />
        </mxCell>
        <mxCell id="pRX1e3hSng5BAHz3EBmg-86" value="+TitoloRicerca:String" style="text;strokeColor=none;fillColor=none;align=left;verticalAlign=top;spacingLeft=4;spacingRight=4;overflow=hidden;rotatable=0;points=[[0,0.5],[1,0.5]];portConstraint=eastwest;whiteSpace=wrap;html=1;" parent="pRX1e3hSng5BAHz3EBmg-84" vertex="1">
          <mxGeometry y="26" width="197" height="26" as="geometry" />
        </mxCell>
        <mxCell id="pRX1e3hSng5BAHz3EBmg-87" value="+DataRicerca:Date&lt;br&gt;&lt;br&gt;+OraRicerca:Date&lt;br&gt;&lt;br&gt;+PrezzoMin:Int&lt;br&gt;&lt;br&gt;+PrezzoMax:Int&lt;br&gt;&lt;br&gt;+NumeroStanze:Int&lt;br&gt;&lt;br&gt;+ClasseEnergetica:String&lt;br&gt;&lt;br&gt;+LocalitaRicercata:String&lt;br&gt;&lt;br&gt;+ViaRicercata:String&lt;br&gt;" style="text;strokeColor=none;fillColor=none;align=left;verticalAlign=top;spacingLeft=4;spacingRight=4;overflow=hidden;rotatable=0;points=[[0,0.5],[1,0.5]];portConstraint=eastwest;whiteSpace=wrap;html=1;" parent="pRX1e3hSng5BAHz3EBmg-84" vertex="1">
          <mxGeometry y="52" width="197" height="230" as="geometry" />
        </mxCell>
        <mxCell id="pRX1e3hSng5BAHz3EBmg-88" value="" style="endArrow=none;html=1;rounded=0;exitX=0.447;exitY=0.006;exitDx=0;exitDy=0;exitPerimeter=0;" parent="WIyWlLk6GJQsqaUBKTNV-1" source="pRX1e3hSng5BAHz3EBmg-84" target="pRX1e3hSng5BAHz3EBmg-83" edge="1">
          <mxGeometry width="50" height="50" relative="1" as="geometry">
            <mxPoint x="-520" y="350" as="sourcePoint" />
            <mxPoint x="-470" y="300" as="targetPoint" />
          </mxGeometry>
        </mxCell>
        <mxCell id="pRX1e3hSng5BAHz3EBmg-89" value="effettua&amp;gt;" style="text;html=1;align=center;verticalAlign=middle;resizable=0;points=[];autosize=1;strokeColor=none;fillColor=none;rotation=90;" parent="WIyWlLk6GJQsqaUBKTNV-1" vertex="1">
          <mxGeometry x="-39" y="621" width="65" height="26" as="geometry" />
        </mxCell>
        <mxCell id="pRX1e3hSng5BAHz3EBmg-91" value="" style="endArrow=block;endSize=16;endFill=0;html=1;rounded=0;exitX=0.554;exitY=0.987;exitDx=0;exitDy=0;exitPerimeter=0;entryX=0.5;entryY=0;entryDx=0;entryDy=0;" parent="WIyWlLk6GJQsqaUBKTNV-1" source="pRX1e3hSng5BAHz3EBmg-5" target="pRX1e3hSng5BAHz3EBmg-80" edge="1">
          <mxGeometry width="160" relative="1" as="geometry">
            <mxPoint x="-272.2689999999998" y="227.45199999999977" as="sourcePoint" />
            <mxPoint x="-10" y="320" as="targetPoint" />
          </mxGeometry>
        </mxCell>
        <mxCell id="pRX1e3hSng5BAHz3EBmg-92" value="" style="endArrow=block;endSize=16;endFill=0;html=1;rounded=0;entryX=0.5;entryY=0;entryDx=0;entryDy=0;exitX=0.25;exitY=1;exitDx=0;exitDy=0;" parent="WIyWlLk6GJQsqaUBKTNV-1" source="zkfFHV4jXpPFQw0GAbJ--0" target="pRX1e3hSng5BAHz3EBmg-80" edge="1">
          <mxGeometry width="160" relative="1" as="geometry">
            <mxPoint x="240" y="260" as="sourcePoint" />
            <mxPoint x="290" y="310" as="targetPoint" />
          </mxGeometry>
        </mxCell>
        <mxCell id="pRX1e3hSng5BAHz3EBmg-114" value="" style="endArrow=block;endSize=16;endFill=0;html=1;rounded=0;exitX=1.014;exitY=0.048;exitDx=0;exitDy=0;exitPerimeter=0;entryX=0;entryY=0.125;entryDx=0;entryDy=0;entryPerimeter=0;" parent="WIyWlLk6GJQsqaUBKTNV-1" source="pRX1e3hSng5BAHz3EBmg-14" target="pRX1e3hSng5BAHz3EBmg-82" edge="1">
          <mxGeometry width="160" relative="1" as="geometry">
            <mxPoint x="-160" y="500" as="sourcePoint" />
            <mxPoint y="500" as="targetPoint" />
          </mxGeometry>
        </mxCell>
        <mxCell id="pRX1e3hSng5BAHz3EBmg-120" value="Agenzia Appartenente" style="swimlane;fontStyle=0;childLayout=stackLayout;horizontal=1;startSize=26;fillColor=none;horizontalStack=0;resizeParent=1;resizeParentMax=0;resizeLast=0;collapsible=1;marginBottom=0;whiteSpace=wrap;html=1;" parent="WIyWlLk6GJQsqaUBKTNV-1" vertex="1">
          <mxGeometry x="-452" y="707" width="160" height="78" as="geometry" />
        </mxCell>
        <mxCell id="pRX1e3hSng5BAHz3EBmg-121" value="+ NomeAgenzia: String" style="text;strokeColor=none;fillColor=none;align=left;verticalAlign=top;spacingLeft=4;spacingRight=4;overflow=hidden;rotatable=0;points=[[0,0.5],[1,0.5]];portConstraint=eastwest;whiteSpace=wrap;html=1;" parent="pRX1e3hSng5BAHz3EBmg-120" vertex="1">
          <mxGeometry y="26" width="160" height="26" as="geometry" />
        </mxCell>
        <mxCell id="pRX1e3hSng5BAHz3EBmg-122" value="+ Località: String" style="text;strokeColor=none;fillColor=none;align=left;verticalAlign=top;spacingLeft=4;spacingRight=4;overflow=hidden;rotatable=0;points=[[0,0.5],[1,0.5]];portConstraint=eastwest;whiteSpace=wrap;html=1;" parent="pRX1e3hSng5BAHz3EBmg-120" vertex="1">
          <mxGeometry y="52" width="160" height="26" as="geometry" />
        </mxCell>
        <mxCell id="pRX1e3hSng5BAHz3EBmg-124" value="" style="endArrow=none;html=1;rounded=0;entryX=0.393;entryY=1.017;entryDx=0;entryDy=0;entryPerimeter=0;exitX=0.568;exitY=0.018;exitDx=0;exitDy=0;exitPerimeter=0;" parent="WIyWlLk6GJQsqaUBKTNV-1" source="pRX1e3hSng5BAHz3EBmg-120" target="pRX1e3hSng5BAHz3EBmg-15" edge="1">
          <mxGeometry width="50" height="50" relative="1" as="geometry">
            <mxPoint x="-372" y="682" as="sourcePoint" />
            <mxPoint x="-482" y="642" as="targetPoint" />
          </mxGeometry>
        </mxCell>
        <mxCell id="pRX1e3hSng5BAHz3EBmg-125" value="Account Semplice" style="swimlane;fontStyle=0;childLayout=stackLayout;horizontal=1;startSize=26;fillColor=none;horizontalStack=0;resizeParent=1;resizeParentMax=0;resizeLast=0;collapsible=1;marginBottom=0;whiteSpace=wrap;html=1;" parent="WIyWlLk6GJQsqaUBKTNV-1" vertex="1">
          <mxGeometry x="-596" width="149" height="200" as="geometry" />
        </mxCell>
        <mxCell id="pRX1e3hSng5BAHz3EBmg-126" value="+ username: type" style="text;strokeColor=none;fillColor=none;align=left;verticalAlign=top;spacingLeft=4;spacingRight=4;overflow=hidden;rotatable=0;points=[[0,0.5],[1,0.5]];portConstraint=eastwest;whiteSpace=wrap;html=1;" parent="pRX1e3hSng5BAHz3EBmg-125" vertex="1">
          <mxGeometry y="26" width="149" height="26" as="geometry" />
        </mxCell>
        <mxCell id="pRX1e3hSng5BAHz3EBmg-127" value="+ password: type" style="text;strokeColor=none;fillColor=none;align=left;verticalAlign=top;spacingLeft=4;spacingRight=4;overflow=hidden;rotatable=0;points=[[0,0.5],[1,0.5]];portConstraint=eastwest;whiteSpace=wrap;html=1;" parent="pRX1e3hSng5BAHz3EBmg-125" vertex="1">
          <mxGeometry y="52" width="149" height="26" as="geometry" />
        </mxCell>
        <mxCell id="pRX1e3hSng5BAHz3EBmg-128" value="+ email: type" style="text;strokeColor=none;fillColor=none;align=left;verticalAlign=top;spacingLeft=4;spacingRight=4;overflow=hidden;rotatable=0;points=[[0,0.5],[1,0.5]];portConstraint=eastwest;whiteSpace=wrap;html=1;" parent="pRX1e3hSng5BAHz3EBmg-125" vertex="1">
          <mxGeometry y="78" width="149" height="122" as="geometry" />
        </mxCell>
        <mxCell id="pRX1e3hSng5BAHz3EBmg-136" value="&amp;lt;&amp;lt;enumeration&amp;gt;&amp;gt;&lt;br&gt;Vendita" style="swimlane;fontStyle=1;align=center;verticalAlign=top;childLayout=stackLayout;horizontal=1;startSize=40;horizontalStack=0;resizeParent=1;resizeParentMax=0;resizeLast=0;collapsible=1;marginBottom=0;whiteSpace=wrap;html=1;" parent="WIyWlLk6GJQsqaUBKTNV-1" vertex="1">
          <mxGeometry x="582" y="653" width="190" height="88" as="geometry" />
        </mxCell>
        <mxCell id="pRX1e3hSng5BAHz3EBmg-137" value="VENDITA,&lt;br&gt;AFFITTO" style="text;strokeColor=none;fillColor=none;align=left;verticalAlign=top;spacingLeft=4;spacingRight=4;overflow=hidden;rotatable=0;points=[[0,0.5],[1,0.5]];portConstraint=eastwest;whiteSpace=wrap;html=1;" parent="pRX1e3hSng5BAHz3EBmg-136" vertex="1">
          <mxGeometry y="40" width="190" height="40" as="geometry" />
        </mxCell>
        <mxCell id="pRX1e3hSng5BAHz3EBmg-138" value="" style="line;strokeWidth=1;fillColor=none;align=left;verticalAlign=middle;spacingTop=-1;spacingLeft=3;spacingRight=3;rotatable=0;labelPosition=right;points=[];portConstraint=eastwest;strokeColor=inherit;" parent="pRX1e3hSng5BAHz3EBmg-136" vertex="1">
          <mxGeometry y="80" width="190" height="8" as="geometry" />
        </mxCell>
        <mxCell id="pRX1e3hSng5BAHz3EBmg-143" value="lavora per&amp;gt;" style="text;html=1;align=center;verticalAlign=middle;resizable=0;points=[];autosize=1;strokeColor=none;fillColor=none;rotation=90;" parent="WIyWlLk6GJQsqaUBKTNV-1" vertex="1">
          <mxGeometry x="-381" y="641" width="78" height="26" as="geometry" />
        </mxCell>
        <mxCell id="Rh3T7BiokwzCPQpsXTQk-1" value="" style="endArrow=none;html=1;rounded=0;entryX=0.506;entryY=1.115;entryDx=0;entryDy=0;entryPerimeter=0;" parent="WIyWlLk6GJQsqaUBKTNV-1" source="pRX1e3hSng5BAHz3EBmg-12" target="pRX1e3hSng5BAHz3EBmg-11" edge="1">
          <mxGeometry width="50" height="50" relative="1" as="geometry">
            <mxPoint x="-567" y="627" as="sourcePoint" />
            <mxPoint x="-517" y="577" as="targetPoint" />
          </mxGeometry>
        </mxCell>
        <mxCell id="Rh3T7BiokwzCPQpsXTQk-2" value="crea&amp;gt;" style="text;html=1;align=center;verticalAlign=middle;resizable=0;points=[];autosize=1;strokeColor=none;fillColor=none;rotation=90;" parent="WIyWlLk6GJQsqaUBKTNV-1" vertex="1">
          <mxGeometry x="-350" y="430" width="48" height="26" as="geometry" />
        </mxCell>
        <mxCell id="Rh3T7BiokwzCPQpsXTQk-3" value="" style="endArrow=block;endSize=16;endFill=0;html=1;rounded=0;exitX=0.751;exitY=0.978;exitDx=0;exitDy=0;exitPerimeter=0;entryX=0.75;entryY=0;entryDx=0;entryDy=0;" parent="WIyWlLk6GJQsqaUBKTNV-1" source="pRX1e3hSng5BAHz3EBmg-11" target="pRX1e3hSng5BAHz3EBmg-12" edge="1">
          <mxGeometry width="160" relative="1" as="geometry">
            <mxPoint x="-206" y="466" as="sourcePoint" />
            <mxPoint x="-46" y="466" as="targetPoint" />
          </mxGeometry>
        </mxCell>
        <mxCell id="YB81cQL6tejglYTjxMEe-3" value="" style="endArrow=none;html=1;rounded=0;exitX=1.011;exitY=0.394;exitDx=0;exitDy=0;exitPerimeter=0;entryX=-0.002;entryY=0.222;entryDx=0;entryDy=0;entryPerimeter=0;" edge="1" parent="WIyWlLk6GJQsqaUBKTNV-1" source="pRX1e3hSng5BAHz3EBmg-128" target="pRX1e3hSng5BAHz3EBmg-5">
          <mxGeometry width="50" height="50" relative="1" as="geometry">
            <mxPoint x="-327" y="121" as="sourcePoint" />
            <mxPoint x="-277" y="71" as="targetPoint" />
          </mxGeometry>
        </mxCell>
        <mxCell id="YB81cQL6tejglYTjxMEe-8" value="" style="endArrow=none;html=1;rounded=0;exitX=1;exitY=0.5;exitDx=0;exitDy=0;entryX=0;entryY=-0.046;entryDx=0;entryDy=0;entryPerimeter=0;" edge="1" parent="WIyWlLk6GJQsqaUBKTNV-1" source="YB81cQL6tejglYTjxMEe-26" target="pRX1e3hSng5BAHz3EBmg-11">
          <mxGeometry width="50" height="50" relative="1" as="geometry">
            <mxPoint x="-517" y="353" as="sourcePoint" />
            <mxPoint x="-390" y="394" as="targetPoint" />
          </mxGeometry>
        </mxCell>
        <mxCell id="YB81cQL6tejglYTjxMEe-13" value="" style="endArrow=none;html=1;rounded=0;exitX=0.992;exitY=1.115;exitDx=0;exitDy=0;entryX=0;entryY=0.5;entryDx=0;entryDy=0;exitPerimeter=0;" edge="1" parent="WIyWlLk6GJQsqaUBKTNV-1" source="YB81cQL6tejglYTjxMEe-29" target="pRX1e3hSng5BAHz3EBmg-14">
          <mxGeometry width="50" height="50" relative="1" as="geometry">
            <mxPoint x="-553" y="553" as="sourcePoint" />
            <mxPoint x="-381" y="420" as="targetPoint" />
          </mxGeometry>
        </mxCell>
        <mxCell id="YB81cQL6tejglYTjxMEe-19" value="Account Aziendale" style="swimlane;fontStyle=0;childLayout=stackLayout;horizontal=1;startSize=26;fillColor=none;horizontalStack=0;resizeParent=1;resizeParentMax=0;resizeLast=0;collapsible=1;marginBottom=0;whiteSpace=wrap;html=1;" vertex="1" parent="WIyWlLk6GJQsqaUBKTNV-1">
          <mxGeometry x="573" y="-76" width="140" height="104" as="geometry" />
        </mxCell>
        <mxCell id="YB81cQL6tejglYTjxMEe-20" value="+username:string" style="text;strokeColor=none;fillColor=none;align=left;verticalAlign=top;spacingLeft=4;spacingRight=4;overflow=hidden;rotatable=0;points=[[0,0.5],[1,0.5]];portConstraint=eastwest;whiteSpace=wrap;html=1;" vertex="1" parent="YB81cQL6tejglYTjxMEe-19">
          <mxGeometry y="26" width="140" height="26" as="geometry" />
        </mxCell>
        <mxCell id="YB81cQL6tejglYTjxMEe-21" value="+ password:string" style="text;strokeColor=none;fillColor=none;align=left;verticalAlign=top;spacingLeft=4;spacingRight=4;overflow=hidden;rotatable=0;points=[[0,0.5],[1,0.5]];portConstraint=eastwest;whiteSpace=wrap;html=1;" vertex="1" parent="YB81cQL6tejglYTjxMEe-19">
          <mxGeometry y="52" width="140" height="26" as="geometry" />
        </mxCell>
        <mxCell id="YB81cQL6tejglYTjxMEe-22" value="+ email: string" style="text;strokeColor=none;fillColor=none;align=left;verticalAlign=top;spacingLeft=4;spacingRight=4;overflow=hidden;rotatable=0;points=[[0,0.5],[1,0.5]];portConstraint=eastwest;whiteSpace=wrap;html=1;" vertex="1" parent="YB81cQL6tejglYTjxMEe-19">
          <mxGeometry y="78" width="140" height="26" as="geometry" />
        </mxCell>
        <mxCell id="YB81cQL6tejglYTjxMEe-23" value="" style="endArrow=none;html=1;rounded=0;exitX=1;exitY=0;exitDx=0;exitDy=0;entryX=0;entryY=0.5;entryDx=0;entryDy=0;" edge="1" parent="WIyWlLk6GJQsqaUBKTNV-1" source="zkfFHV4jXpPFQw0GAbJ--0" target="YB81cQL6tejglYTjxMEe-22">
          <mxGeometry width="50" height="50" relative="1" as="geometry">
            <mxPoint x="618" y="140" as="sourcePoint" />
            <mxPoint x="668" y="90" as="targetPoint" />
          </mxGeometry>
        </mxCell>
        <mxCell id="YB81cQL6tejglYTjxMEe-24" value="Account Amministratore" style="swimlane;fontStyle=0;childLayout=stackLayout;horizontal=1;startSize=26;fillColor=none;horizontalStack=0;resizeParent=1;resizeParentMax=0;resizeLast=0;collapsible=1;marginBottom=0;whiteSpace=wrap;html=1;" vertex="1" parent="WIyWlLk6GJQsqaUBKTNV-1">
          <mxGeometry x="-687" y="301" width="167" height="104" as="geometry" />
        </mxCell>
        <mxCell id="YB81cQL6tejglYTjxMEe-25" value="+username:string" style="text;strokeColor=none;fillColor=none;align=left;verticalAlign=top;spacingLeft=4;spacingRight=4;overflow=hidden;rotatable=0;points=[[0,0.5],[1,0.5]];portConstraint=eastwest;whiteSpace=wrap;html=1;" vertex="1" parent="YB81cQL6tejglYTjxMEe-24">
          <mxGeometry y="26" width="167" height="26" as="geometry" />
        </mxCell>
        <mxCell id="YB81cQL6tejglYTjxMEe-26" value="+ password:string" style="text;strokeColor=none;fillColor=none;align=left;verticalAlign=top;spacingLeft=4;spacingRight=4;overflow=hidden;rotatable=0;points=[[0,0.5],[1,0.5]];portConstraint=eastwest;whiteSpace=wrap;html=1;" vertex="1" parent="YB81cQL6tejglYTjxMEe-24">
          <mxGeometry y="52" width="167" height="26" as="geometry" />
        </mxCell>
        <mxCell id="YB81cQL6tejglYTjxMEe-27" value="+ email: string" style="text;strokeColor=none;fillColor=none;align=left;verticalAlign=top;spacingLeft=4;spacingRight=4;overflow=hidden;rotatable=0;points=[[0,0.5],[1,0.5]];portConstraint=eastwest;whiteSpace=wrap;html=1;" vertex="1" parent="YB81cQL6tejglYTjxMEe-24">
          <mxGeometry y="78" width="167" height="26" as="geometry" />
        </mxCell>
        <mxCell id="YB81cQL6tejglYTjxMEe-28" value="Account Gestore" style="swimlane;fontStyle=0;childLayout=stackLayout;horizontal=1;startSize=26;fillColor=none;horizontalStack=0;resizeParent=1;resizeParentMax=0;resizeLast=0;collapsible=1;marginBottom=0;whiteSpace=wrap;html=1;" vertex="1" parent="WIyWlLk6GJQsqaUBKTNV-1">
          <mxGeometry x="-724" y="498" width="167" height="104" as="geometry" />
        </mxCell>
        <mxCell id="YB81cQL6tejglYTjxMEe-29" value="+username:string" style="text;strokeColor=none;fillColor=none;align=left;verticalAlign=top;spacingLeft=4;spacingRight=4;overflow=hidden;rotatable=0;points=[[0,0.5],[1,0.5]];portConstraint=eastwest;whiteSpace=wrap;html=1;" vertex="1" parent="YB81cQL6tejglYTjxMEe-28">
          <mxGeometry y="26" width="167" height="26" as="geometry" />
        </mxCell>
        <mxCell id="YB81cQL6tejglYTjxMEe-30" value="+ password:string" style="text;strokeColor=none;fillColor=none;align=left;verticalAlign=top;spacingLeft=4;spacingRight=4;overflow=hidden;rotatable=0;points=[[0,0.5],[1,0.5]];portConstraint=eastwest;whiteSpace=wrap;html=1;" vertex="1" parent="YB81cQL6tejglYTjxMEe-28">
          <mxGeometry y="52" width="167" height="26" as="geometry" />
        </mxCell>
        <mxCell id="YB81cQL6tejglYTjxMEe-31" value="+ email: string" style="text;strokeColor=none;fillColor=none;align=left;verticalAlign=top;spacingLeft=4;spacingRight=4;overflow=hidden;rotatable=0;points=[[0,0.5],[1,0.5]];portConstraint=eastwest;whiteSpace=wrap;html=1;" vertex="1" parent="YB81cQL6tejglYTjxMEe-28">
          <mxGeometry y="78" width="167" height="26" as="geometry" />
        </mxCell>
        <mxCell id="YB81cQL6tejglYTjxMEe-32" value="" style="endArrow=none;html=1;rounded=0;entryX=0;entryY=0.5;entryDx=0;entryDy=0;" edge="1" parent="WIyWlLk6GJQsqaUBKTNV-1" source="pRX1e3hSng5BAHz3EBmg-83" target="pRX1e3hSng5BAHz3EBmg-2">
          <mxGeometry width="50" height="50" relative="1" as="geometry">
            <mxPoint x="226" y="523" as="sourcePoint" />
            <mxPoint x="276" y="473" as="targetPoint" />
          </mxGeometry>
        </mxCell>
        <mxCell id="YB81cQL6tejglYTjxMEe-33" value="&amp;lt;si riferisce" style="text;html=1;align=center;verticalAlign=middle;resizable=0;points=[];autosize=1;strokeColor=none;fillColor=none;rotation=-30;" vertex="1" parent="WIyWlLk6GJQsqaUBKTNV-1">
          <mxGeometry x="106" y="413" width="79" height="26" as="geometry" />
        </mxCell>
      </root>
    </mxGraphModel>
  </diagram>
</mxfile>
